<svg xmlns="http://www.w3.org/2000/svg" xmlns:xlink="http://www.w3.org/1999/xlink" width="32" height="32" version="1.1" style=""><rect id="backgroundrect" width="100%" height="100%" x="0" y="0" fill="none" stroke="none"/>

<g class="currentLayer" style=""><title>Layer 1</title><g id="surface1" class="selected" fill-opacity="1" fill="#4141e8">
<path style="stroke: none; fill-rule: nonzero;" d="M 6.5 14 L 1.5 14 C 0.671875 14 0 14.671875 0 15.5 L 0 30.5 C 0 31.328125 0.671875 32 1.5 32 L 6.5 32 C 7.328125 32 8 31.328125 8 30.5 L 8 15.5 C 8 14.671875 7.328125 14 6.5 14 Z M 4 29.5 C 3.171875 29.5 2.5 28.828125 2.5 28 C 2.5 27.171875 3.171875 26.5 4 26.5 C 4.828125 26.5 5.5 27.171875 5.5 28 C 5.5 28.828125 4.828125 29.5 4 29.5 Z M 24 5.089844 C 24 7.742188 22.375 9.230469 21.921875 11 L 28.277344 11 C 30.363281 11 31.988281 12.734375 32 14.632812 C 32.003906 15.753906 31.527344 16.960938 30.785156 17.707031 L 30.777344 17.710938 C 31.394531 19.171875 31.292969 21.214844 30.195312 22.679688 C 30.738281 24.296875 30.191406 26.285156 29.171875 27.351562 C 29.441406 28.453125 29.3125 29.386719 28.789062 30.140625 C 27.511719 31.972656 24.351562 32 21.675781 32 L 21.5 32 C 18.480469 32 16.011719 30.898438 14.027344 30.015625 C 13.03125 29.574219 11.726562 29.023438 10.738281 29.007812 C 10.328125 29 10 28.664062 10 28.257812 L 10 14.894531 C 10 14.695312 10.082031 14.503906 10.222656 14.363281 C 12.699219 11.917969 13.761719 9.328125 15.792969 7.292969 C 16.71875 6.367188 17.054688 4.964844 17.378906 3.613281 C 17.65625 2.457031 18.238281 0 19.5 0 C 21 0 24 0.5 24 5.089844 Z M 24 5.089844 " id="svg_1" fill="#4141e8" fill-opacity="1"/>
</g></g></svg>