<?xml version="1.0" encoding="UTF-8"?>
<svg xmlns="http://www.w3.org/2000/svg" xmlns:xlink="http://www.w3.org/1999/xlink" width="32pt" height="36pt" viewBox="0 0 32 36" version="1.1">
<g id="surface1">
<path style=" stroke:none;fill-rule:nonzero;fill:rgb(0%,0%,0%);fill-opacity:1;" d="M 0 5.90625 L 0 3.9375 C 0 3.003906 0.765625 2.25 1.714844 2.25 L 9.714844 2.25 L 10.386719 0.933594 C 10.671875 0.359375 11.265625 0 11.914062 0 L 20.078125 0 C 20.730469 0 21.320312 0.359375 21.613281 0.933594 L 22.285156 2.25 L 30.285156 2.25 C 31.234375 2.25 32 3.003906 32 3.9375 L 32 5.90625 C 32 6.371094 31.613281 6.75 31.144531 6.75 L 0.855469 6.75 C 0.386719 6.75 0 6.371094 0 5.90625 Z M 29.65625 9.894531 L 28.199219 32.835938 C 28.085938 34.613281 26.585938 36 24.777344 36 L 7.222656 36 C 5.414062 36 3.914062 34.613281 3.800781 32.835938 L 2.34375 9.894531 C 2.3125 9.40625 2.707031 9 3.199219 9 L 28.808594 9 C 29.292969 9 29.6875 9.40625 29.65625 9.894531 Z M 29.65625 9.894531 "/>
</g>
</svg>
